<svg width="24" height="20" viewBox="0 0 24 20" fill="none" xmlns="http://www.w3.org/2000/svg">
<path d="M0 1C0 1.55228 0.447715 2 1 2H23C23.5523 2 24 1.55228 24 1C24 0.447715 23.5523 0 23 0H1C0.447716 0 0 0.447715 0 1Z" fill="#91793A"/>
<path d="M0 19C0 19.5523 0.447715 20 1 20H23C23.5523 20 24 19.5523 24 19C24 18.4477 23.5523 18 23 18H1C0.447716 18 0 18.4477 0 19Z" fill="#91793A"/>
<path d="M1 11C0.447715 11 0 10.5523 0 10C0 9.44771 0.447715 9 1 9H14C14.5523 9 15 9.44771 15 10C15 10.5523 14.5523 11 14 11H1Z" fill="#91793A"/>
</svg>
